<mxfile host="app.diagrams.net" modified="2023-04-30T09:30:34.656Z" agent="Mozilla/5.0 (Windows NT 10.0; Win64; x64) AppleWebKit/537.36 (KHTML, like Gecko) Chrome/112.0.0.0 Safari/537.36" etag="bOj5hJofOsFsc5469QwU" version="21.2.3" type="github">
  <diagram name="第 1 页" id="j0mjxfR2muMYfqirtJxF">
    <mxGraphModel dx="951" dy="628" grid="1" gridSize="10" guides="1" tooltips="1" connect="1" arrows="1" fold="1" page="1" pageScale="1" pageWidth="827" pageHeight="1169" math="0" shadow="0">
      <root>
        <mxCell id="0" />
        <mxCell id="1" parent="0" />
        <mxCell id="fkprWATBR68_Bz1YEc-L-1" value="Access" style="rounded=0;whiteSpace=wrap;html=1;shadow=1;" vertex="1" parent="1">
          <mxGeometry x="480" y="100" width="120" height="60" as="geometry" />
        </mxCell>
        <mxCell id="fkprWATBR68_Bz1YEc-L-9" value="" style="group" vertex="1" connectable="0" parent="1">
          <mxGeometry x="80" y="80" width="140" height="210" as="geometry" />
        </mxCell>
        <mxCell id="fkprWATBR68_Bz1YEc-L-4" value="" style="rounded=0;whiteSpace=wrap;html=1;shadow=1;" vertex="1" parent="fkprWATBR68_Bz1YEc-L-9">
          <mxGeometry width="140" height="210" as="geometry" />
        </mxCell>
        <mxCell id="fkprWATBR68_Bz1YEc-L-6" value="Alloc" style="rounded=0;whiteSpace=wrap;html=1;shadow=0;" vertex="1" parent="fkprWATBR68_Bz1YEc-L-9">
          <mxGeometry x="10" y="10" width="120" height="60" as="geometry" />
        </mxCell>
        <mxCell id="fkprWATBR68_Bz1YEc-L-7" value="GameServer" style="rounded=0;whiteSpace=wrap;html=1;shadow=0;" vertex="1" parent="fkprWATBR68_Bz1YEc-L-9">
          <mxGeometry x="10" y="90" width="120" height="60" as="geometry" />
        </mxCell>
        <mxCell id="fkprWATBR68_Bz1YEc-L-8" value="BodingGameServer" style="text;html=1;strokeColor=none;fillColor=none;align=center;verticalAlign=middle;whiteSpace=wrap;rounded=0;shadow=1;" vertex="1" parent="fkprWATBR68_Bz1YEc-L-9">
          <mxGeometry x="10" y="170" width="120" height="30" as="geometry" />
        </mxCell>
        <mxCell id="fkprWATBR68_Bz1YEc-L-10" value="CoinCacheServer" style="rounded=0;whiteSpace=wrap;html=1;shadow=1;" vertex="1" parent="1">
          <mxGeometry x="320" y="260" width="140" height="60" as="geometry" />
        </mxCell>
        <mxCell id="fkprWATBR68_Bz1YEc-L-11" value="" style="group" vertex="1" connectable="0" parent="1">
          <mxGeometry x="80" y="345" width="140" height="210" as="geometry" />
        </mxCell>
        <mxCell id="fkprWATBR68_Bz1YEc-L-12" value="" style="rounded=0;whiteSpace=wrap;html=1;shadow=1;" vertex="1" parent="fkprWATBR68_Bz1YEc-L-11">
          <mxGeometry width="140" height="210" as="geometry" />
        </mxCell>
        <mxCell id="fkprWATBR68_Bz1YEc-L-13" value="Alloc" style="rounded=0;whiteSpace=wrap;html=1;shadow=0;" vertex="1" parent="fkprWATBR68_Bz1YEc-L-11">
          <mxGeometry x="10" y="10" width="120" height="60" as="geometry" />
        </mxCell>
        <mxCell id="fkprWATBR68_Bz1YEc-L-14" value="GameServer" style="rounded=0;whiteSpace=wrap;html=1;shadow=0;" vertex="1" parent="fkprWATBR68_Bz1YEc-L-11">
          <mxGeometry x="10" y="90" width="120" height="60" as="geometry" />
        </mxCell>
        <mxCell id="fkprWATBR68_Bz1YEc-L-15" value="DIceGameServer" style="text;html=1;strokeColor=none;fillColor=none;align=center;verticalAlign=middle;whiteSpace=wrap;rounded=0;shadow=1;" vertex="1" parent="fkprWATBR68_Bz1YEc-L-11">
          <mxGeometry x="10" y="170" width="120" height="30" as="geometry" />
        </mxCell>
      </root>
    </mxGraphModel>
  </diagram>
</mxfile>
